<svg version="1.0" xmlns="http://www.w3.org/2000/svg" viewBox="0 0 700 700"><path d="M97 6.2C84.6 8 68.2 14.8 60.5 21.4c-1.6 1.4-3.3 2.6-3.6 2.6-1 0-9.5 11.3-11.6 15.5-5.4 10.6-7.3 24.6-4.8 35.4 4.6 19.3 20.5 34.6 40 38.2 14 2.6 31.8-2.1 41.9-11 2.7-2.4 2.7-2.2-.6 1.9-5.7 7.3-8.7 13.2-10.8 21.4-5.8 22.9 4.4 46.2 25 57 8.2 4.3 14.3 5.8 24.1 5.8 11.7 0 21.8-3.4 31.1-10.5l4.5-3.5-3.3 5.6c-5.3 8.7-7.6 15.8-8.1 25.2-.6 10.1.7 17.3 4.7 25.5l3 6-11.5 11.2c-14.5 14.2-27.4 25.2-44.5 37.8-30.9 22.9-77.4 49.5-107.8 61.6-11.3 4.5-14.5 6.4-18.6 11-7.6 8.3-10.4 20.3-7.2 31.1 2.1 7.4 4.3 10.5 20.6 29.8 7.7 9 33.9 40.3 49.5 59 7.1 8.5 13.4 16 14 16.6.5.7 1.9 2.2 2.9 3.5 1.1 1.3 4.2 5.1 7 8.4 8.3 9.7 8.9 10.5 19.7 23.5 5.7 6.9 10.6 12.7 10.9 13 .3.3 9.8 11.5 21 25s20.7 24.7 21 25c.3.3 3.7 4.3 7.5 9s7.2 8.7 7.5 9c.3.3 3.7 4.3 7.5 9 3.9 4.7 8.2 9.8 9.7 11.5 1.4 1.6 5.6 6.6 9.2 11 4 4.8 8.3 8.8 10.9 10.2 11.9 6.2 37.3 3.9 61.2-5.4 15.4-6 43.3-20 60.5-30.3 56.6-34.1 99.3-71.7 133.8-118.2 2.3-3.2 4.7-5.8 5.2-5.8.6 0-.5 1.9-2.3 4.3-15.5 20.3-13.7 50.1 4.2 67.6 12.9 12.7 31.2 17.6 48.4 12.9 6.9-1.9 15.3-5.6 17.9-8 .7-.7 2.4-2.2 3.8-3.3 2.4-2 2.4-2-.2 1.5-6.4 8.7-10 20.1-10.1 31.5-.1 26.3 20.6 48.4 46.8 50 15.4.9 29.5-4.6 40.8-15.8 5.6-5.6 7.7-8.7 11.7-17 11.9-25.4 12.3-52 1.3-84.7-3.4-10.3-14-32.9-16.9-36.1-.8-.8-1.4-1.8-1.4-2.2 0-1.2-9.5-14.5-16.6-23.2-12.9-15.9-39-39.6-49.6-45.1-2.4-1.2-2.7-1.8-1.8-2.9 1-1.2 12.8-8.4 26.5-16.1 1.1-.7 8.8-4.6 17-8.7 25.2-12.6 49.8-22.5 73.4-29.6 15.7-4.7 19.7-7.6 23.2-17.1 4.2-11.1 1.4-24.8-7.5-36.3-3.5-4.7-32.7-39.3-40.5-48.2-1.9-2.2-49-57.9-69.2-82-2-2.3-15.2-17.9-18.3-21.5-1.2-1.4-5.5-6.6-9.6-11.5-4.1-5-7.7-9.2-8-9.5-.3-.3-5.5-6.4-11.5-13.5-6-7.2-11.4-13.5-12-14.1-.5-.7-3.9-4.7-7.5-8.9-31.4-37.5-34.8-41.4-38.9-43.4-14.4-7.3-38.2-3.4-81.6 13.4-6 2.3-13.2 5.3-16 6.5-33.2 15-60 30.3-84.3 48.2-5.2 3.8-9.5 6.8-9.7 6.6-.2-.2-1.9-4-3.8-8.4-16.1-37.5-48.6-74.5-85.8-97.7-17.8-11.2-44.2-21.4-62.4-24.2-7.2-1-27.8-1.3-34.5-.3z"/></svg>
